<svg width="235" height="46" viewBox="0 0 235 46" fill="none" xmlns="http://www.w3.org/2000/svg">
<path d="M74.1445 0C75.6923 1.01425 77.2115 2.05531 78.7005 3.15405C82.1512 5.69769 85.7044 8.10717 89.4877 10.1318C93.084 12.0662 95.8637 14.2394 98.7407 17.1302C99.4818 17.8499 100.265 18.4788 101.078 19.1156C103.842 21.3256 105.941 24.1443 108.092 26.9274C108.963 28.0537 109.837 29.1768 110.711 30.3006C110.889 30.5295 111.067 30.7584 111.25 30.9943C112.533 32.6455 113.828 34.286 115.144 35.9118C114.848 36.06 114.848 36.06 114.545 36.2111C113.86 35.8796 113.218 35.5296 112.563 35.145C112.357 35.0266 112.151 34.9082 111.939 34.7863C111.21 34.3661 110.484 33.9419 109.757 33.5177C109.154 33.1677 108.551 32.8178 107.947 32.4679C106.721 31.7552 105.495 31.0413 104.27 30.3252C103.983 30.1578 103.697 29.9904 103.402 29.818C102.877 29.5072 102.355 29.1916 101.838 28.8696C99.7811 27.593 97.6329 26.5856 95.4298 25.5872C94.0185 24.9435 92.6096 24.2951 91.2027 23.642C90.855 23.4838 90.5073 23.3256 90.1491 23.1627C89.6603 22.9324 89.6603 22.9324 89.1616 22.6974C88.724 22.4946 88.724 22.4946 88.2777 22.2877C87.6115 21.8464 87.6115 21.8464 87.365 21.1946C87.3475 21.0147 87.3301 20.8347 87.3122 20.6493C86.9172 20.6493 86.5221 20.6493 86.1151 20.6493C85.5533 20.1011 85.0845 19.577 84.6001 18.9659C84.4583 18.7927 84.3165 18.6195 84.1704 18.441C83.7167 17.8838 83.2692 17.3222 82.8232 16.7589C82.6748 16.5719 82.5265 16.3849 82.3736 16.1923C81.5449 15.1458 80.722 14.0951 79.9069 13.0379C79.5374 12.5768 79.1404 12.1382 78.7434 11.7006C77.9152 10.6168 77.5424 9.62899 77.1372 8.34202C76.9868 7.88972 76.8356 7.43771 76.6836 6.98597C76.6097 6.76531 76.5359 6.54465 76.4597 6.3173C76.1498 5.42932 75.7873 4.56744 75.4164 3.70341C74.8924 2.48008 74.4672 1.29058 74.1445 0Z" fill="#515B8B"/>
<path d="M76.5391 29.0286C78.1166 29.2456 79.6844 29.5003 81.2525 29.7767C81.591 29.8352 81.591 29.8352 81.9364 29.8948C82.8571 30.0567 83.731 30.2288 84.6192 30.5249C84.6192 30.7224 84.6192 30.9199 84.6192 31.1234C84.9591 31.1161 85.299 31.1088 85.6491 31.1012C87.0205 31.1027 88.3357 31.2617 89.688 31.4788C90.0234 31.5242 90.0234 31.5242 90.3655 31.5706C92.179 31.86 93.5483 32.5443 95.0935 33.5175C95.3265 33.6636 95.5596 33.8097 95.7997 33.9602C98.5576 35.73 101.2 37.4425 103.174 40.1014C103.584 40.6133 103.996 41.1245 104.408 41.6351C104.603 41.8828 104.799 42.1304 105 42.3856C105.522 43.0371 106.062 43.6655 106.615 44.2911C107.363 45.1889 107.363 45.1889 107.363 45.7874C107.094 45.7184 106.825 45.6493 106.547 45.5782C101.806 44.372 97.0451 43.239 92.2236 42.3985C90.0103 41.9599 88.5035 41.2966 86.6954 39.9892C86.2867 39.6999 85.8779 39.4108 85.4691 39.1218C85.1789 38.9131 85.1789 38.9131 84.8828 38.7003C84.3585 38.3328 83.8237 37.9926 83.2807 37.6535C83.0311 37.4737 82.7815 37.2939 82.5244 37.1087C82.4121 36.2857 82.4121 36.2857 82.5244 35.6124C82.1293 35.6124 81.7343 35.6124 81.3273 35.6124C80.7841 35.0725 80.7841 35.0725 80.239 34.3242C80.0416 34.0568 79.8443 33.7895 79.641 33.514C79.4383 33.2313 79.2356 32.9485 79.0267 32.6572C78.8205 32.3767 78.6143 32.0962 78.4019 31.8073C76.9065 29.7635 76.9065 29.7635 76.5391 29.0286Z" fill="#333453"/>
<path d="M74.1445 0C76.0128 1.22549 77.8378 2.49992 79.6435 3.81563C80.1134 4.15712 80.5833 4.49848 81.0534 4.83968C81.2572 4.98811 81.461 5.13653 81.671 5.28946C82.1479 5.63105 82.6344 5.95918 83.1225 6.28457C83.1225 6.48209 83.1225 6.6796 83.1225 6.8831C82.925 6.98186 82.7275 7.08062 82.524 7.18237C82.524 7.67615 82.524 8.16994 82.524 8.67869C82.7894 8.75893 83.0548 8.83917 83.3282 8.92185C84.2504 9.25242 84.9966 9.64487 85.8159 10.175C85.6677 10.4713 85.6677 10.4713 85.5166 10.7736C85.0228 10.6748 84.529 10.576 84.0203 10.4743C84.0203 10.2768 84.0203 10.0793 84.0203 9.87575C82.534 9.25358 82.3308 9.2348 80.7284 9.87575C80.0371 8.88818 79.3458 7.9006 78.6335 6.8831C78.831 7.26579 79.0285 7.64847 79.232 8.04275C79.8306 9.20241 79.8306 9.20241 79.8306 9.87575C79.238 10.0239 79.238 10.0239 78.6335 10.175C78.7323 10.2738 78.831 10.3725 78.9328 10.4743C79.1858 10.4311 79.4389 10.3879 79.6996 10.3434C81.342 10.5524 82.1111 11.6195 83.1225 12.8684C83.4691 13.3856 83.8057 13.9097 84.1325 14.4396C84.4934 15.0136 84.855 15.5872 85.2173 16.1603C85.3898 16.4446 85.5622 16.729 85.7399 17.0219C88.832 21.4116 94.8106 23.5077 99.5857 25.6185C100.548 26.0483 101.28 26.4368 101.976 27.2331C102.605 27.585 102.605 27.585 103.173 27.8317C103.025 28.2761 103.025 28.2761 102.874 28.7295C103.109 28.7727 103.343 28.8159 103.585 28.8604C104.37 29.0287 104.37 29.0287 104.969 29.328C105.25 27.8167 105.25 27.8167 104.969 26.3353C105.166 26.3353 105.364 26.3353 105.567 26.3353C105.567 26.1378 105.567 25.9403 105.567 25.7368C105.962 25.6381 106.357 25.5393 106.764 25.4376C108.624 27.5924 110.417 29.7665 112.107 32.0576C113.086 33.3693 114.112 34.6414 115.144 35.9118C114.848 36.06 114.848 36.06 114.545 36.2111C113.86 35.8796 113.218 35.5296 112.563 35.145C112.357 35.0266 112.151 34.9082 111.939 34.7863C111.21 34.3661 110.484 33.9419 109.757 33.5177C109.154 33.1677 108.551 32.8178 107.947 32.4679C106.721 31.7552 105.495 31.0413 104.27 30.3252C103.983 30.1578 103.697 29.9904 103.402 29.818C102.877 29.5072 102.355 29.1916 101.838 28.8696C99.7811 27.593 97.6329 26.5856 95.4298 25.5872C94.0185 24.9435 92.6096 24.2951 91.2027 23.642C90.855 23.4838 90.5073 23.3256 90.1491 23.1627C89.6603 22.9324 89.6603 22.9324 89.1616 22.6974C88.724 22.4946 88.724 22.4946 88.2777 22.2877C87.6115 21.8464 87.6115 21.8464 87.365 21.1946C87.3475 21.0147 87.3301 20.8347 87.3122 20.6493C86.9172 20.6493 86.5221 20.6493 86.1151 20.6493C85.5533 20.1011 85.0845 19.577 84.6001 18.9659C84.4583 18.7927 84.3165 18.6195 84.1704 18.441C83.7167 17.8838 83.2692 17.3222 82.8232 16.7589C82.6748 16.5719 82.5265 16.3849 82.3736 16.1923C81.5449 15.1458 80.722 14.0951 79.9069 13.0379C79.5374 12.5768 79.1404 12.1382 78.7434 11.7006C77.9152 10.6168 77.5424 9.62899 77.1372 8.34202C76.9868 7.88972 76.8356 7.43771 76.6836 6.98597C76.6097 6.76531 76.5359 6.54465 76.4597 6.3173C76.1498 5.42932 75.7873 4.56744 75.4164 3.70341C74.8924 2.48008 74.4672 1.29058 74.1445 0Z" fill="#2C2D48"/>
<path d="M84.6195 7.18243C85.3518 7.60683 86.0659 8.05443 86.7812 8.50684C87.8162 9.15665 88.86 9.7785 89.9268 10.375C93.3076 12.2879 96.0172 14.4256 98.7659 17.1596C99.4943 17.8592 100.265 18.4738 101.06 19.0969C103.32 20.9013 105.153 23.0454 106.765 25.4376C106.37 25.5364 105.975 25.6351 105.568 25.7369C105.568 25.9344 105.568 26.1319 105.568 26.3354C105.371 26.3354 105.173 26.3354 104.97 26.3354C105.167 26.8292 105.365 27.323 105.568 27.8317C104.67 27.8317 104.67 27.8317 103.772 27.2332C103.772 27.0357 103.772 26.8382 103.772 26.6347C103.55 26.5606 103.328 26.4865 103.099 26.4102C102.207 26.0048 101.708 25.5842 101.079 24.8391C101.079 24.6416 101.079 24.444 101.079 24.2405C100.917 24.1769 100.755 24.1132 100.588 24.0477C99.6267 23.4953 98.9227 22.7324 98.1612 21.9399C96.9687 20.7214 95.7626 19.5582 94.4578 18.4586C93.8967 17.956 93.8967 17.956 93.373 17.3785C90.9825 14.7471 87.8923 12.9759 84.9187 11.0729C85.1163 10.7766 85.3138 10.4803 85.5173 10.1751C85.3047 10.0879 85.0921 10.0007 84.8731 9.91088C84.0467 9.5423 83.2806 9.17714 82.5246 8.67875C82.1879 7.68744 82.1879 7.68744 82.2254 6.88316C83.3398 6.51168 83.5821 6.68581 84.6195 7.18243Z" fill="#4A5280"/>
<path d="M85.8169 32.3206C89.8132 32.6649 93.2032 34.0643 96.6091 36.1362C96.8698 36.2939 97.1305 36.4517 97.3991 36.6142C101.103 38.897 101.103 38.897 102.276 40.4007C102.276 40.697 102.276 40.9933 102.276 41.2985C102.079 41.2985 101.881 41.2985 101.678 41.2985C101.678 41.5948 101.678 41.8911 101.678 42.1963C99.713 42.5007 98.1944 42.4494 96.2725 41.9719C96.0477 41.9209 95.823 41.87 95.5915 41.8176C94.0751 41.4611 92.6521 40.9729 91.2036 40.4007C91.2036 40.2032 91.2036 40.0057 91.2036 39.8022C91.5987 39.8022 91.9937 39.8022 92.4007 39.8022C91.7737 38.8616 91.6263 38.7522 90.6238 38.3994C90.4174 38.3242 90.211 38.2489 89.9984 38.1714C89.3661 37.9664 89.3661 37.9664 88.5103 38.0066C88.7078 38.3029 88.9053 38.5991 89.1088 38.9044C88.936 38.8488 88.7631 38.7933 88.5851 38.7361C87.9259 38.5496 87.9259 38.5496 87.3693 38.7922C86.3198 38.9721 85.5633 38.4446 84.6198 38.0066C84.3914 37.951 84.1631 37.8955 83.9278 37.8383C83.4227 37.7073 83.4227 37.7073 82.8242 37.1088C83.318 36.9113 83.8118 36.7138 84.3205 36.5103C84.123 36.4115 83.9255 36.3128 83.722 36.211C83.722 35.9147 83.722 35.6185 83.722 35.3132C83.4257 35.2145 83.1295 35.1157 82.8242 35.0139C84.1663 35.0139 84.9029 35.3701 86.1161 35.9117C86.512 36.0234 86.9099 36.1303 87.3132 36.211C87.0883 35.2301 87.0883 35.2301 86.1161 34.7147C85.9065 33.9177 85.8835 33.1464 85.8169 32.3206Z" fill="#5C6A9F"/>
<path d="M76.5391 29.0286C78.1166 29.2456 79.6844 29.5003 81.2525 29.7767C81.591 29.8352 81.591 29.8352 81.9364 29.8948C82.8571 30.0567 83.731 30.2288 84.6192 30.5249C84.6192 30.7224 84.6192 30.9199 84.6192 31.1234C85.147 31.1142 85.147 31.1142 85.6854 31.1047C86.856 31.1026 87.9545 31.2304 89.1082 31.4227C89.1082 31.5214 89.1082 31.6202 89.1082 31.722C87.9641 32.1477 87.0394 32.3924 85.8163 32.3205C85.915 32.6044 86.0138 32.8883 86.1156 33.1809C86.4148 34.1161 86.4148 34.1161 86.4148 34.7146C86.7111 34.9121 87.0074 35.1096 87.3126 35.3131C87.3126 35.6094 87.3126 35.9057 87.3126 36.2109C86.173 36.0098 85.1151 35.6862 84.0207 35.3131C83.9219 35.3131 83.8232 35.3131 83.7214 35.3131C83.7214 35.6094 83.7214 35.9057 83.7214 36.2109C84.0177 36.3097 84.314 36.4084 84.6192 36.5102C83.827 36.9473 83.4537 37.1087 82.5244 37.1087C82.5244 36.6149 82.5244 36.1212 82.5244 35.6124C82.1293 35.6124 81.7343 35.6124 81.3273 35.6124C80.7841 35.0725 80.7841 35.0725 80.239 34.3242C80.0416 34.0568 79.8443 33.7895 79.641 33.514C79.4383 33.2313 79.2356 32.9485 79.0267 32.6572C78.8205 32.3767 78.6143 32.0962 78.4019 31.8073C76.9065 29.7635 76.9065 29.7635 76.5391 29.0286Z" fill="#444D79"/>
<path d="M85.8164 8.37939C87.2751 8.90558 88.5981 9.64924 89.95 10.3994C90.1801 10.5244 90.4102 10.6494 90.6473 10.7782C92.9819 12.0706 94.9992 13.6112 96.9266 15.4495C98.3131 16.7542 99.7335 18.0034 101.191 19.2278C103.383 21.0824 105.138 23.0709 106.765 25.4375C106.37 25.5363 105.975 25.635 105.568 25.7368C105.568 25.9343 105.568 26.1318 105.568 26.3353C105.37 26.3353 105.173 26.3353 104.969 26.3353C105.266 27.076 105.266 27.076 105.568 27.8316C104.67 27.8316 104.67 27.8316 103.772 27.2331C103.772 27.0356 103.772 26.8381 103.772 26.6346C103.55 26.5605 103.328 26.4864 103.099 26.4101C102.207 26.0047 101.708 25.5841 101.079 24.839C101.079 24.6415 101.079 24.444 101.079 24.2405C100.684 24.0429 100.289 23.8454 99.8819 23.6419C100.713 23.2265 101.094 23.375 101.977 23.6419C102.818 24.2592 102.818 24.2592 103.473 24.839C103.572 24.3452 103.671 23.8514 103.772 23.3427C103.518 23.1743 103.518 23.1743 103.259 23.0025C103.04 22.8493 102.82 22.6962 102.594 22.5384C102.375 22.3891 102.157 22.2398 101.931 22.086C101.378 21.5471 101.378 21.5471 101.275 20.841C100.974 19.6298 100.071 19.1032 99.115 18.3861C98.9159 18.2321 98.7168 18.0781 98.5117 17.9195C97.8742 17.4286 97.2324 16.9439 96.59 16.4596C96.1671 16.1367 95.7443 15.8136 95.3216 15.4905C93.5022 14.1067 91.6763 12.7493 89.7583 11.5041C88.4125 10.611 87.0881 9.67464 85.8164 8.67866C85.8164 8.5799 85.8164 8.48114 85.8164 8.37939Z" fill="#424972"/>
<path d="M83.7227 13.4668C85.1799 13.6027 86.0713 14.3256 87.1642 15.225C87.3449 15.37 87.5255 15.515 87.7117 15.6644C89.1829 16.8523 90.6269 18.0742 92.0495 19.3199C92.7683 19.9417 93.2842 20.3449 94.1969 20.6492C94.5822 21.0922 94.9665 21.5365 95.332 21.9959C95.7213 22.4796 96.1404 22.9156 96.5911 23.3426C94.4494 23.5278 93.1146 22.9822 91.2604 21.9397C90.9977 21.7939 90.735 21.648 90.4643 21.4976C88.066 20.0934 86.4905 18.4431 84.9197 16.1602C84.6944 15.8442 84.4691 15.5283 84.237 15.2028C83.7227 14.3646 83.7227 14.3646 83.7227 13.4668Z" fill="#7382BA"/>
<path d="M89.707 23.0435C91.6683 23.3557 93.3845 24.2852 95.1686 25.1196C95.4514 25.2512 95.4514 25.2512 95.74 25.3855C98.5939 26.7173 101.329 28.1686 104.008 29.8247C105.366 30.6474 106.751 31.4241 108.131 32.2085C108.673 32.5179 109.216 32.8272 109.759 33.1366C110.158 33.3635 110.556 33.5903 110.955 33.817C110.659 34.1133 110.659 34.1133 110.356 34.4155C109.709 34.4085 109.709 34.4085 108.972 34.3033C108.728 34.2701 108.483 34.237 108.231 34.2028C108.044 34.1742 107.856 34.1457 107.663 34.1163C107.663 33.9188 107.663 33.7212 107.663 33.5177C107.169 33.419 106.675 33.3202 106.167 33.2185C106.167 33.021 106.167 32.8234 106.167 32.6199C105.867 32.549 105.567 32.478 105.258 32.4048C103.976 32.0378 102.951 31.4067 101.846 30.6747C101.56 30.4936 101.56 30.4936 101.269 30.3088C100.795 29.9999 100.336 29.6659 99.8821 29.328C99.8821 29.1305 99.8821 28.933 99.8821 28.7295C99.5117 28.6122 99.1414 28.4949 98.7598 28.3741C95.9148 27.4198 92.7272 26.3452 90.3056 24.5398C89.9151 23.7355 89.9151 23.7355 89.707 23.0435Z" fill="#ABB2E2"/>
<path d="M94.1953 14.6641C95.9432 15.7786 97.588 16.9764 99.1916 18.2903C99.6077 18.6302 100.029 18.9642 100.459 19.2863C101.649 20.1919 101.649 20.1919 101.808 21.0983C102.052 22.1829 102.723 22.4793 103.623 23.068C103.771 23.1587 103.919 23.2494 104.071 23.3428C103.874 23.8365 103.676 24.3303 103.473 24.8391C102.412 24.4148 102.174 24.0382 101.677 23.0435C101.283 22.8336 100.884 22.6349 100.48 22.445C100.081 22.0459 99.6818 21.6469 99.2828 21.2479C98.9866 21.1491 98.6903 21.0504 98.385 20.9486C97.9629 20.4989 97.9629 20.4989 97.5328 19.9246C97.3764 19.7163 97.22 19.508 97.0588 19.2933C96.8977 19.0742 96.7367 18.8551 96.5707 18.6293C96.4085 18.4148 96.2463 18.2003 96.0792 17.9794C95.2869 16.9139 94.6013 15.9449 94.1953 14.6641Z" fill="#545E8F"/>
<path d="M76.2402 3.29199C76.9094 3.93728 77.5037 4.57496 78.0732 5.31203C78.2584 5.53424 78.4436 5.75644 78.6344 5.98538C78.8319 5.98538 79.0294 5.98538 79.2329 5.98538C79.0354 5.09656 78.8379 4.20774 78.6344 3.29199C79.1585 3.62182 79.6821 3.9524 80.2055 4.28331C80.4971 4.46732 80.7888 4.65133 81.0893 4.84092C82.5316 5.78164 82.5316 5.78164 83.1233 6.28465C83.1233 6.48216 83.1233 6.67968 83.1233 6.88318C82.8271 7.03131 82.8271 7.03131 82.5248 7.18244C82.5248 7.67623 82.5248 8.17002 82.5248 8.67877C82.7902 8.75901 83.0556 8.83925 83.3291 8.92192C84.2512 9.25249 84.9974 9.64494 85.8167 10.1751C85.718 10.3726 85.6192 10.5701 85.5175 10.7736C85.0237 10.6749 84.5299 10.5761 84.0211 10.4744C84.0211 10.2768 84.0211 10.0793 84.0211 9.87583C82.742 9.32049 82.742 9.32049 81.4154 9.5602C81.189 9.66436 80.9625 9.76851 80.7292 9.87583C80.5128 9.55178 80.5128 9.55178 80.292 9.22119C80.103 8.94343 79.9139 8.66567 79.7192 8.3795C79.438 7.96287 79.438 7.96287 79.1511 7.53782C78.8953 7.21377 78.8953 7.21377 78.6344 6.88318C78.4368 6.88318 78.2393 6.88318 78.0358 6.88318C77.5846 6.24957 77.5846 6.24957 77.1006 5.42426C76.9394 5.15345 76.7781 4.88263 76.612 4.60362C76.2402 3.89052 76.2402 3.89052 76.2402 3.29199Z" fill="#373B5E"/>
<path d="M96.8874 36.5105C100.876 38.6919 100.876 38.6919 102.274 40.4009C102.274 40.6972 102.274 40.9935 102.274 41.2987C102.077 41.2987 101.879 41.2987 101.676 41.2987C101.676 41.595 101.676 41.8913 101.676 42.1965C99.3007 42.6393 97.4058 42.2311 95.0918 41.598C95.0918 41.4993 95.0918 41.4005 95.0918 41.2987C97.3149 41.256 97.3149 41.256 98.3837 41.598C98.3837 41.4005 98.3837 41.203 98.3837 40.9995C98.9763 40.9007 99.5688 40.802 100.179 40.7002C98.7967 40.5027 97.4141 40.3052 95.9896 40.1017C96.2859 39.7067 96.5821 39.3116 96.8874 38.9046C96.5911 38.7071 96.2948 38.5096 95.9896 38.3061C95.9896 37.9111 95.9896 37.516 95.9896 37.109C96.2859 37.109 96.5821 37.109 96.8874 37.109C96.8874 36.9115 96.8874 36.714 96.8874 36.5105Z" fill="#495482"/>
<path d="M108.56 29.9265C108.819 30.0747 108.819 30.0747 109.083 30.2258C109.816 30.6061 109.816 30.6061 110.954 30.525C111.455 31.0195 111.455 31.0195 111.945 31.7034C112.123 31.9464 112.302 32.1895 112.485 32.4399C112.671 32.6968 112.857 32.9537 113.049 33.2184C113.44 33.7249 113.832 34.23 114.227 34.7335C114.533 35.1262 114.838 35.519 115.144 35.9118C114.946 36.0106 114.749 36.1093 114.545 36.2111C113.774 35.8283 113.042 35.4296 112.301 34.9953C112.086 34.8714 111.871 34.7476 111.65 34.6199C111.218 34.3704 110.788 34.1197 110.357 33.868C109.836 33.5639 109.311 33.2661 108.785 32.9694C108.52 32.8171 108.254 32.6647 107.98 32.5077C107.633 32.3098 107.633 32.3098 107.28 32.1079C106.764 31.7221 106.764 31.7221 106.465 30.8243C106.699 30.7873 106.934 30.7502 107.176 30.7121C108.003 30.5875 108.003 30.5875 108.56 29.9265Z" fill="#202137"/>
<path d="M85.8164 8.37939C87.2751 8.90558 88.5981 9.64924 89.95 10.3994C90.1801 10.5244 90.4102 10.6494 90.6473 10.7782C92.9818 12.0705 94.9995 13.611 96.9266 15.4495C97.9842 16.447 99.0506 17.4239 100.166 18.3569C100.359 18.5184 100.552 18.68 100.751 18.8465C101.126 19.1583 101.503 19.4678 101.882 19.775C102.329 20.1472 102.754 20.546 103.174 20.9485C103.174 21.2448 103.174 21.5411 103.174 21.8463C102.803 21.52 102.803 21.52 102.426 21.187C98.8586 18.0713 95.0993 15.2593 91.2032 12.5691C90.2976 11.9416 89.394 11.3113 88.4911 10.68C88.2625 10.5218 88.034 10.3637 87.7985 10.2007C87.5854 10.0514 87.3722 9.90212 87.1526 9.7483C86.9601 9.61432 86.7675 9.48033 86.5692 9.34229C86.1157 8.97793 86.1157 8.97793 85.8164 8.37939Z" fill="#3C3F63"/>
<path d="M84.0195 37.7073C84.3343 37.7999 84.6491 37.8924 84.9734 37.9878C86.1814 38.3245 87.2544 38.6051 88.5085 38.6051C88.4098 38.3088 88.311 38.0125 88.2092 37.7073C89.6898 37.8553 90.8315 38.108 92.0997 38.9043C92.5112 39.559 92.5112 39.559 92.6982 40.1014C91.9575 39.9533 91.9575 39.9533 91.2019 39.8021C91.2019 39.9996 91.2019 40.1972 91.2019 40.4007C90.9091 40.7062 90.6094 41.0054 90.3041 41.2985C90.2053 41.496 90.1066 41.6935 90.0048 41.897C88.6913 41.2692 87.5345 40.4587 86.3388 39.6338C86.1159 39.482 85.8929 39.3302 85.6632 39.1738C85.4525 39.0289 85.2419 38.8841 85.0249 38.7348C84.8319 38.6023 84.6389 38.4698 84.4401 38.3332C84.3013 38.2254 84.1625 38.1176 84.0195 38.0065C84.0195 37.9078 84.0195 37.809 84.0195 37.7073Z" fill="#4C5482"/>
<path d="M93.8965 25.4375C95.2498 25.8557 96.5061 26.3906 97.7682 27.0273C97.9675 27.1277 98.1668 27.2281 98.3721 27.3315C100.338 28.336 102.273 29.3958 104.202 30.4689C104.509 30.6374 104.816 30.8059 105.132 30.9795C105.418 31.1401 105.703 31.3006 105.997 31.4661C106.253 31.6091 106.509 31.7522 106.774 31.8995C107.363 32.3206 107.363 32.3206 107.663 33.2184C105.472 32.8865 103.674 31.8421 101.846 30.6559C101.655 30.5365 101.465 30.4171 101.269 30.2941C100.795 29.9893 100.337 29.6604 99.8818 29.3279C99.8818 29.1304 99.8818 28.9329 99.8818 28.7294C99.7221 28.682 99.5624 28.6345 99.3978 28.5856C97.5972 28.0218 95.7846 27.3693 94.1957 26.3353C94.097 26.039 93.9982 25.7428 93.8965 25.4375Z" fill="#ADB0C5"/>
<path d="M88.5078 33.2183C91.434 32.9639 94.2948 34.4737 96.588 36.211C96.6867 36.5072 96.7855 36.8035 96.8872 37.1088C94.82 36.9986 93.1051 36.7379 91.2012 35.9117C91.2012 35.7142 91.2012 35.5167 91.2012 35.3132C90.3124 34.8194 89.4236 34.3256 88.5078 33.8168C88.5078 33.6193 88.5078 33.4218 88.5078 33.2183Z" fill="#7587C0"/>
<path d="M74.1445 0C74.8043 0.439861 75.4638 0.880111 76.1213 1.32331C76.6912 1.69891 77.2767 2.05088 77.8666 2.39412C78.806 3.12728 78.9917 3.63459 79.232 4.78825C79.232 5.18328 79.232 5.57831 79.232 5.98531C78.9358 6.08406 78.6395 6.18282 78.3342 6.28457C77.7417 5.49451 77.1492 4.70445 76.5387 3.89045C76.7362 4.38424 76.9337 4.87802 77.1372 5.38678C76.136 5.07336 75.9361 4.78074 75.4304 3.83434C75.272 3.45571 75.1178 3.0753 74.9675 2.69339C74.8472 2.40522 74.8472 2.40522 74.7244 2.11122C74.1445 0.697156 74.1445 0.697157 74.1445 0Z" fill="#24253C"/>
<path d="M76.5391 29.0286C78.1258 29.1905 79.2999 29.5662 80.7288 30.2256C81.025 30.3244 81.3213 30.4231 81.6266 30.5249C81.4291 30.9199 81.2315 31.315 81.028 31.722C80.4355 31.722 79.843 31.722 79.2325 31.722C80.3188 32.8083 81.4051 33.8946 82.5244 35.0139C82.4256 35.2114 82.3269 35.4089 82.2251 35.6124C81.9288 35.6124 81.6326 35.6124 81.3273 35.6124C80.8181 35.0725 80.8181 35.0725 80.2682 34.3242C80.0699 34.0568 79.8716 33.7895 79.6673 33.514C79.4621 33.2313 79.2569 32.9485 79.0454 32.6572C78.8379 32.3767 78.6303 32.0962 78.4165 31.8073C76.8974 29.7453 76.8974 29.7453 76.5391 29.0286Z" fill="#2D304B"/>
<path d="M91.5013 19.4521C92.002 19.6469 92.5004 19.8473 92.9976 20.0507C93.1952 20.1247 93.3927 20.1988 93.5962 20.2751C94.4905 20.8341 95.0385 21.625 95.691 22.4448C95.9852 22.7491 96.2816 23.0515 96.5888 23.3426C94.583 23.5697 93.3419 23.0375 91.5679 22.1151C90.9028 21.547 90.9028 21.547 90.6585 20.5861C90.6403 20.3106 90.6222 20.0352 90.6035 19.7514C90.8998 19.8502 91.1961 19.9489 91.5013 20.0507C91.5013 19.8532 91.5013 19.6556 91.5013 19.4521Z" fill="#6F7EB5"/>
<path d="M80.1289 32.3206C80.9328 32.6109 81.5791 32.8838 82.2612 33.4054C82.827 33.9054 82.827 33.9054 83.7201 33.8169C84.5244 34.4154 84.5244 34.4154 85.2164 35.0139C85.3152 34.8164 85.4139 34.6189 85.5157 34.4154C85.7132 34.3167 85.9107 34.2179 86.1142 34.1161C86.7127 34.6586 86.7127 34.6586 87.3113 35.3132C87.3113 35.6095 87.3113 35.9058 87.3113 36.211C86.1716 36.0099 85.1138 35.6863 84.0194 35.3132C83.9206 35.3132 83.8218 35.3132 83.7201 35.3132C83.7201 35.6095 83.7201 35.9058 83.7201 36.211C84.0164 36.3098 84.3126 36.4085 84.6179 36.5103C83.8256 36.9474 83.4524 37.1088 82.523 37.1088C82.5169 36.8064 82.5107 36.5039 82.5043 36.1923C82.33 34.8524 81.5572 34.2243 80.5766 33.3621C80.4289 33.2159 80.2811 33.0697 80.1289 32.9191C80.1289 32.7216 80.1289 32.5241 80.1289 32.3206Z" fill="#525D8D"/>
<path d="M79.8301 29.6272C81.5073 29.7532 83.0385 29.9014 84.6183 30.525C84.6183 30.7225 84.6183 30.92 84.6183 31.1235C85.1461 31.1143 85.1461 31.1143 85.6845 31.1048C86.8551 31.1027 87.9536 31.2305 89.1073 31.4228C89.1073 31.5215 89.1073 31.6203 89.1073 31.7221C86.7619 32.4648 85.1473 32.1544 82.8227 31.4228C82.8227 31.7191 82.8227 32.0153 82.8227 32.3206C81.9339 32.1724 81.9339 32.1724 81.0271 32.0213C81.1259 31.5275 81.2247 31.0337 81.3264 30.525C81.0301 30.525 80.7339 30.525 80.4286 30.525C80.4286 30.3275 80.4286 30.13 80.4286 29.9265C80.2311 29.8277 80.0336 29.7289 79.8301 29.6272Z" fill="#494D71"/>
<path d="M96.888 36.5105C97.2901 36.7295 97.6884 36.9552 98.0851 37.1838C98.3073 37.3088 98.5295 37.4338 98.7584 37.5626C98.9313 37.7092 99.1041 37.8558 99.2822 38.0068C99.2822 38.4019 99.2822 38.7969 99.2822 39.2039C99.1834 39.3026 99.0846 39.4014 98.9829 39.5032C99.2792 39.7994 99.5754 40.0957 99.8807 40.4009C98.5968 40.3022 97.313 40.2034 95.9902 40.1017C96.2865 39.7067 96.5828 39.3116 96.888 38.9046C96.5918 38.7071 96.2955 38.5096 95.9902 38.3061C95.9902 37.9111 95.9902 37.516 95.9902 37.109C96.2865 37.109 96.5828 37.109 96.888 37.109C96.888 36.9115 96.888 36.714 96.888 36.5105Z" fill="#535F92"/>
<path d="M104.07 41.8972C105.34 42.9017 106.384 43.8947 107.362 45.1891C107.362 45.3867 107.362 45.5842 107.362 45.7877C106.581 45.6107 105.803 45.4294 105.024 45.2452C104.803 45.1957 104.582 45.1461 104.355 45.095C102.342 44.6125 102.342 44.6125 101.676 43.6928C103.696 43.3561 103.696 43.3561 104.369 43.6928C104.369 43.4953 104.369 43.2978 104.369 43.0943C104.172 43.0943 103.974 43.0943 103.771 43.0943C103.869 42.6992 103.968 42.3042 104.07 41.8972Z" fill="#363956"/>
<path d="M97.2073 40.0455C97.6277 40.0828 97.6277 40.0828 98.0566 40.1209C98.323 40.1473 98.5894 40.1737 98.8638 40.2009C99.1092 40.2248 99.3546 40.2486 99.6074 40.2732C99.7968 40.3153 99.9862 40.3574 100.181 40.4008C100.28 40.5984 100.379 40.7959 100.481 40.9994C99.7893 40.9994 99.0979 40.9994 98.3857 40.9994C98.3857 41.1969 98.3857 41.3944 98.3857 41.5979C97.6121 41.5718 96.8395 41.5398 96.0664 41.5044C95.7389 41.4943 95.7389 41.4943 95.4047 41.4839C94.1344 41.4204 93.324 41.3074 92.4004 40.4008C92.5856 40.3576 92.7707 40.3144 92.9615 40.2699C94.5179 39.8579 95.557 39.8778 97.2073 40.0455Z" fill="#616FA5"/>
<path d="M106.746 25.6246C107.521 26.1414 107.831 26.7164 108.261 27.5324C107.767 27.4336 107.273 27.3349 106.764 27.2331C106.962 27.8256 107.159 28.4182 107.363 29.0287C106.622 29.4731 106.622 29.4731 105.867 29.9265C105.399 29.5524 105.399 29.5524 104.969 29.0287C105.081 28.4676 105.081 28.4676 105.268 27.8316C105.153 27.0292 105.153 27.0292 104.969 26.3353C105.166 26.3353 105.364 26.3353 105.567 26.3353C105.567 26.1378 105.567 25.9403 105.567 25.7368C106.166 25.4375 106.166 25.4375 106.746 25.6246Z" fill="#333758"/>
<path d="M102.275 40.7002C102.627 40.9131 102.627 40.9131 102.986 41.1304C103.439 41.4002 103.898 41.6614 104.37 41.8973C104.172 42.2923 103.975 42.6873 103.771 43.0943C103.969 43.0943 104.166 43.0943 104.37 43.0943C104.37 43.2918 104.37 43.4893 104.37 43.6928C103.987 43.7361 103.604 43.7793 103.21 43.8238C102.497 43.9043 102.022 43.9688 101.377 44.2914C100.741 44.0108 100.741 44.0108 100.18 43.6928C100.575 43.6928 100.97 43.6928 101.377 43.6928C101.377 43.4953 101.377 43.2978 101.377 43.0943C100.883 42.9956 100.39 42.8968 99.8809 42.7951C99.9796 42.5975 100.078 42.4 100.18 42.1965C100.674 42.1965 101.168 42.1965 101.676 42.1965C101.676 41.9002 101.676 41.604 101.676 41.2987C101.874 41.2987 102.071 41.2987 102.275 41.2987C102.275 41.1012 102.275 40.9037 102.275 40.7002Z" fill="#34395A"/>
<path d="M83.8332 6.78952C84.708 7.22693 85.3937 7.71979 86.1151 8.37936C86.1151 8.57688 86.1151 8.77439 86.1151 8.97789C85.9176 8.97789 85.7201 8.97789 85.5166 8.97789C85.6153 9.37292 85.7141 9.76795 85.8158 10.175C84.6726 9.74929 83.5712 9.308 82.5239 8.67863C82.1685 7.68731 82.1685 7.68731 82.2246 6.88304C83.1224 6.58377 83.1224 6.58377 83.8332 6.78952Z" fill="#434A74"/>
<path d="M84.0195 37.7073C84.2973 37.7875 84.575 37.8678 84.8612 37.9504C86.3723 38.3826 87.8895 38.7922 89.4063 39.2036C89.4063 39.4011 89.4063 39.5986 89.4063 39.8021C89.6038 39.9009 89.8013 39.9996 90.0048 40.1014C89.9061 40.4964 89.8073 40.8915 89.7056 41.2985C88.178 41.1583 87.2144 40.3879 86.0209 39.5029C85.8278 39.364 85.6347 39.2251 85.4358 39.082C84.9566 38.7331 84.4871 38.371 84.0195 38.0065C84.0195 37.9078 84.0195 37.809 84.0195 37.7073Z" fill="#2D2E4A"/>
<path d="M103.771 29.9265C106.233 31.118 108.608 32.4113 110.954 33.817C110.756 34.0145 110.559 34.212 110.355 34.4155C109.708 34.4085 109.708 34.4085 108.971 34.3033C108.727 34.2701 108.482 34.2369 108.23 34.2027C108.043 34.1742 107.855 34.1456 107.662 34.1162C107.662 33.9187 107.662 33.7212 107.662 33.5177C107.168 33.4189 106.674 33.3202 106.166 33.2184C106.363 33.1197 106.561 33.0209 106.764 32.9192C107.06 33.0179 107.357 33.1167 107.662 33.2184C106.736 32.1874 105.591 31.6173 104.395 30.9447C104.189 30.8062 103.983 30.6677 103.771 30.525C103.771 30.3275 103.771 30.13 103.771 29.9265Z" fill="#9AA2D9"/>
<path d="M101.977 29.6272C103.39 30.0395 104.588 30.6474 105.83 31.4228C106.007 31.5293 106.185 31.6357 106.367 31.7454C106.811 32.0191 107.238 32.3177 107.663 32.6199C107.663 32.8174 107.663 33.0149 107.663 33.2184C105.657 32.9145 103.867 32.0742 102.276 30.8243C102.014 30.1509 102.014 30.1509 101.977 29.6272Z" fill="#9093AE"/>
<path d="M78.334 6.58398C79.0996 7.32834 79.8126 8.05741 80.4662 8.90329C80.9898 9.65161 80.9898 9.65161 81.9252 9.8759C82.823 10.9067 82.823 10.9067 82.823 11.6715C81.0648 11.1104 81.0648 11.1104 80.7281 10.7737C80.0299 10.7614 79.3314 10.761 78.6332 10.7737C78.6332 10.5762 78.6332 10.3787 78.6332 10.1752C79.0283 10.0764 79.4233 9.97765 79.8303 9.8759C79.7223 9.68842 79.6143 9.50093 79.503 9.30777C79.3641 9.06319 79.2252 8.81861 79.0821 8.56662C78.9433 8.32358 78.8044 8.08054 78.6613 7.83014C78.334 7.18251 78.334 7.18251 78.334 6.58398Z" fill="#3B3F64"/>
<path d="M88.5078 17.6567C90.4231 17.7672 90.4231 17.7672 91.3321 18.7229C91.4864 18.9636 91.6407 19.2043 91.7997 19.4523C91.701 19.6498 91.6022 19.8474 91.5005 20.0509C91.303 20.0509 91.1054 20.0509 90.9019 20.0509C91.0007 20.4459 91.0994 20.8409 91.2012 21.2479C89.7797 20.9861 89.7797 20.9861 89.1063 20.6494C89.1063 20.4519 89.1063 20.2544 89.1063 20.0509C89.3039 19.9521 89.5014 19.8533 89.7049 19.7516C89.1123 18.7146 89.1123 18.7146 88.5078 17.6567Z" fill="#7583BB"/>
<path d="M99.582 37.1089C100.764 37.2675 101.233 37.7929 101.995 38.68C102.196 38.9099 102.397 39.1399 102.604 39.3768C103.163 40.0882 103.624 40.8124 104.071 41.5979C103.775 41.746 103.775 41.746 103.472 41.8971C103.269 41.6873 103.065 41.4774 102.855 41.2612C102.224 40.6207 101.557 40.0628 100.854 39.503C100.122 38.8899 99.9057 38.68 99.6007 37.7448C99.5946 37.535 99.5884 37.3251 99.582 37.1089Z" fill="#323452"/>
<path d="M85.5176 8.97803C87.1137 9.0989 88.1275 10.0034 89.3519 10.942C89.5593 11.0976 89.7666 11.2533 89.9803 11.4136C90.4896 11.7965 90.9965 12.1825 91.5029 12.5692C91.2066 12.7173 91.2066 12.7173 90.9044 12.8685C90.0099 12.5407 89.1822 12.0619 88.3419 11.6153C88.1045 11.4955 87.867 11.3757 87.6224 11.2523C87.3965 11.1333 87.1706 11.0143 86.9379 10.8917C86.7302 10.7832 86.5224 10.6747 86.3083 10.563C85.6972 10.0807 85.6262 9.73432 85.5176 8.97803Z" fill="#535E8F"/>
<path d="M101.208 41.0929C101.676 41.5979 101.676 41.5979 101.676 42.1965C99.3007 42.6392 97.4058 42.231 95.0918 41.5979C95.0918 41.4992 95.0918 41.4004 95.0918 41.2987C97.3149 41.2559 97.3149 41.2559 98.3837 41.5979C98.3837 41.4004 98.3837 41.2029 98.3837 40.9994C100.287 40.5968 100.287 40.5968 101.208 41.0929Z" fill="#4E5888"/>
<path d="M93.5972 34.7148C94.8267 35.1488 95.8428 35.7317 96.8892 36.5104C96.8892 36.708 96.8892 36.9055 96.8892 37.109C94.8219 36.9988 93.107 36.7381 91.2031 35.9119C91.3019 35.7144 91.4006 35.5169 91.5024 35.3134C92.8356 35.6096 92.8356 35.6096 94.1958 35.9119C93.9983 35.8131 93.8007 35.7144 93.5972 35.6126C93.5972 35.3164 93.5972 35.0201 93.5972 34.7148Z" fill="#6878B0"/>
<path d="M86.7129 16.7588C87.694 16.9413 88.331 17.1325 88.9609 17.9301C89.3297 18.5282 89.6779 19.1295 90.0048 19.7514C89.4123 20.0477 89.4123 20.0477 88.8077 20.35C87.1697 18.8379 87.1697 18.8379 87.0122 17.6566C86.9134 17.3603 86.8146 17.064 86.7129 16.7588Z" fill="#6672A9"/>
<path d="M101.377 20.6492C102.582 20.8345 103.413 21.4125 104.37 22.1455C104.931 22.9685 104.931 22.9685 105.267 23.6418C104.872 23.9381 104.477 24.2344 104.07 24.5396C103.987 24.2156 103.987 24.2156 103.902 23.885C103.376 22.8555 102.783 22.4988 101.814 21.9094C101.67 21.7898 101.526 21.6702 101.377 21.547C101.377 21.2507 101.377 20.9544 101.377 20.6492Z" fill="#484E7A"/>
<path d="M82.8242 33.5178C83.7083 33.9283 84.4522 34.4122 85.2183 35.0141C85.3171 34.8166 85.4159 34.6191 85.5176 34.4156C85.7151 34.3169 85.9126 34.2181 86.1161 34.1164C86.7147 34.6588 86.7147 34.6588 87.3132 35.3134C87.3132 35.6097 87.3132 35.906 87.3132 36.2112C84.0506 35.6354 84.0506 35.6354 83.1235 34.4156C83.0247 34.1193 82.926 33.8231 82.8242 33.5178Z" fill="#4B5484"/>
<path d="M107.961 28.1311C108.673 28.1839 109.069 28.3398 109.571 28.85C109.943 29.3002 110.3 29.7625 110.655 30.226C110.358 30.6704 110.358 30.6704 110.056 31.1238C109.266 30.4325 108.476 29.7412 107.662 29.0289C107.761 28.7326 107.86 28.4364 107.961 28.1311Z" fill="#292B44"/>
<path d="M78.9336 31.7222C80.2881 32.823 81.4457 33.94 82.5248 35.3134C82.1297 35.4121 81.7347 35.5109 81.3277 35.6126C80.927 35.0777 80.5284 34.5412 80.1307 34.0041C79.9085 33.7055 79.6862 33.4069 79.4573 33.0993C78.9336 32.3207 78.9336 32.3207 78.9336 31.7222Z" fill="#25253C"/>
<path d="M104.07 41.8972C104.668 42.1965 104.668 42.1965 104.912 42.9072C104.968 43.6928 104.968 43.6928 104.668 44.2539C103.724 44.7853 102.995 44.5369 101.975 44.2913C101.876 44.0938 101.778 43.8963 101.676 43.6928C103.696 43.3561 103.696 43.3561 104.369 43.6928C104.369 43.4953 104.369 43.2978 104.369 43.0943C104.172 43.0943 103.974 43.0943 103.771 43.0943C103.869 42.6992 103.968 42.3042 104.07 41.8972Z" fill="#252741"/>
<path d="M88.5078 33.2184C90.4396 33.0505 91.8459 33.6271 93.5953 34.4155C93.299 34.613 93.0028 34.8105 92.6975 35.014C91.9213 34.8106 91.9213 34.8106 91.0516 34.4529C89.8191 33.9453 89.8191 33.9453 88.5078 33.817C88.5078 33.6195 88.5078 33.4219 88.5078 33.2184Z" fill="#6B7BB2"/>
<path d="M94.4946 14.0654C96.0429 14.7381 97.1212 15.312 98.0858 16.7588C97.7895 16.8576 97.4932 16.9563 97.188 17.0581C96.4456 16.5636 96.4456 16.5636 95.6355 15.8797C95.3659 15.6548 95.0962 15.4299 94.8184 15.1982C94.6128 15.0219 94.4072 14.8456 94.1953 14.664C94.2941 14.4664 94.3928 14.2689 94.4946 14.0654Z" fill="#404369"/>
<path d="M101.676 41.5979C102.425 42.0094 102.425 42.0094 103.173 42.4957C103.173 42.6932 103.173 42.8907 103.173 43.0942C101.853 43.4012 101.1 43.4045 99.8809 42.795C99.9796 42.5974 100.078 42.3999 100.18 42.1964C100.674 42.1964 101.168 42.1964 101.676 42.1964C101.676 41.9989 101.676 41.8014 101.676 41.5979Z" fill="#3F4770"/>
<path d="M80.7281 30.2257C81.0244 30.3245 81.3207 30.4233 81.6259 30.525C81.4284 30.92 81.2309 31.3151 81.0274 31.7221C79.8492 31.3294 79.1638 30.8485 78.334 29.9265C79.4331 29.5601 79.703 29.7645 80.7281 30.2257Z" fill="#272B46"/>
<path d="M101.977 27.5325C102.372 27.6312 102.767 27.73 103.174 27.8317C103.075 28.128 102.976 28.4243 102.874 28.7295C103.103 28.7542 103.331 28.7789 103.566 28.8043C104.527 29.0725 104.758 29.3927 105.268 30.2259C104.972 30.374 104.972 30.374 104.67 30.5251C104.022 30.227 104.022 30.227 103.286 29.7957C103.041 29.6541 102.797 29.5125 102.545 29.3666C102.357 29.2552 102.17 29.1437 101.977 29.0288C102.174 28.93 102.372 28.8313 102.575 28.7295C102.378 28.3345 102.18 27.9395 101.977 27.5325Z" fill="#333557"/>
<path d="M93.8965 25.4375C95.4516 25.916 96.9089 26.5572 98.3855 27.2331C97.1851 27.6332 96.2441 27.3737 95.0935 26.9338C94.3454 26.3166 94.3454 26.3166 93.8965 25.7368C93.8965 25.638 93.8965 25.5393 93.8965 25.4375Z" fill="#9A9EBB"/>
<path d="M96.2908 40.1016C96.1921 40.3979 96.0933 40.6941 95.9916 40.9994C95.5054 41.0155 95.019 41.0271 94.5327 41.0368C94.2618 41.0437 93.991 41.0507 93.712 41.0578C92.9989 40.9994 92.9989 40.9994 92.4004 40.4008C92.5856 40.3576 92.7707 40.3144 92.9615 40.2699C94.2483 39.9293 94.9074 39.871 96.2908 40.1016Z" fill="#6B7AB2"/>
<path d="M92.998 32.6199C93.8874 32.9564 94.5944 33.2851 95.3922 33.8169C95.3922 34.0144 95.3922 34.212 95.3922 34.4155C94.7009 34.4155 94.0096 34.4155 93.2973 34.4155C93.1986 33.8229 93.0998 33.2304 92.998 32.6199Z" fill="#30304C"/>
<path d="M101.228 26.9713C101.976 27.2332 101.976 27.2332 102.369 28.0001C102.47 28.3611 102.47 28.3611 102.574 28.7295C101.574 28.5627 100.769 28.325 99.8809 27.8317C99.8809 27.6342 99.8809 27.4367 99.8809 27.2332C100.479 26.9339 100.479 26.9339 101.228 26.9713Z" fill="#24243C"/>
<path d="M78.334 6.58398C79.1263 7.35544 79.8136 8.05532 80.4288 8.97811C80.4288 9.37314 80.4288 9.76817 80.4288 10.1752C79.8363 10.3727 79.2438 10.5702 78.6332 10.7737C78.6332 10.5762 78.6332 10.3787 78.6332 10.1752C79.0283 10.0764 79.4233 9.97765 79.8303 9.8759C79.7223 9.68842 79.6143 9.50093 79.503 9.30777C79.3641 9.06319 79.2252 8.81861 79.0821 8.56662C78.9433 8.32358 78.8044 8.08054 78.6613 7.83014C78.334 7.18251 78.334 7.18251 78.334 6.58398Z" fill="#828CC4"/>
<path d="M101.751 39.8769C102.011 40.1361 102.011 40.1361 102.275 40.4006C102.275 40.6969 102.275 40.9932 102.275 41.2984C101.979 41.3972 101.682 41.4959 101.377 41.5977C100.573 41.0553 100.573 41.0553 99.8809 40.4006C99.8809 40.2031 99.8809 40.0056 99.8809 39.8021C100.704 39.4788 100.96 39.4371 101.751 39.8769Z" fill="#414A74"/>
<path d="M112.751 33.2185C113.735 34.1493 114.498 35.0189 115.145 36.2112C113.424 35.6874 113.424 35.6874 112.751 35.0141C112.713 34.0789 112.713 34.0789 112.751 33.2185Z" fill="#3F4260"/>
<path d="M108.26 34.1162C108.733 34.0918 109.207 34.0745 109.681 34.0601C110.077 34.0445 110.077 34.0445 110.481 34.0286C111.386 34.1314 111.778 34.4162 112.449 35.014C112.227 35.0079 112.005 35.0017 111.776 34.9953C110.977 34.9718 110.977 34.9718 110.355 35.2198C109.445 35.362 108.981 34.9364 108.26 34.4155C108.26 34.3167 108.26 34.218 108.26 34.1162Z" fill="#D6D8E9"/>
<path d="M98.6855 20.9485C99.8596 21.4947 100.702 22.2002 101.678 23.0433C101.579 23.2409 101.481 23.4384 101.379 23.6419C100.57 23.5329 100.258 23.4379 99.7377 22.7897C99.6127 22.5709 99.4877 22.3522 99.3589 22.1268C99.2308 21.9073 99.1027 21.6878 98.9708 21.4617C98.8767 21.2923 98.7825 21.123 98.6855 20.9485Z" fill="#4F5888"/>
<path d="M85.8164 8.37939C87.2136 8.85967 88.5375 9.56894 89.7069 10.4743C89.7069 10.6718 89.7069 10.8693 89.7069 11.0728C88.2024 10.6026 87.0049 9.6902 85.8164 8.67866C85.8164 8.5799 85.8164 8.48114 85.8164 8.37939Z" fill="#363859"/>
<path d="M92.0998 32.0212C92.4949 32.2188 92.8899 32.4163 93.2969 32.6198C93.2969 33.1136 93.2969 33.6073 93.2969 34.1161C92.1792 33.9671 91.5575 33.8543 90.6035 33.2183C91.0973 33.1195 91.5911 33.0208 92.0998 32.919C92.0998 32.6228 92.0998 32.3265 92.0998 32.0212Z" fill="#42476D"/>
<path d="M91.2031 24.839C93.1413 24.7293 93.1413 24.7293 93.8591 25.2318C94.1958 25.7368 94.1958 25.7368 94.495 26.6346C93.3605 26.2008 92.2842 25.6914 91.2031 25.1383C91.2031 25.0395 91.2031 24.9408 91.2031 24.839Z" fill="#B4B7CB"/>
<path d="M94.793 23.3426C96.5962 23.1623 96.5962 23.1623 97.4267 23.6758C97.8622 24.0448 98.2749 24.4404 98.6834 24.8389C98.3871 24.9871 98.3871 24.9871 98.0849 25.1382C97.3063 24.8401 97.3063 24.8401 96.4015 24.4088C95.9513 24.1964 95.9513 24.1964 95.492 23.9797C95.2613 23.8682 95.0307 23.7568 94.793 23.6419C94.793 23.5431 94.793 23.4444 94.793 23.3426Z" fill="#5C6798"/>
<path d="M94.1953 14.6641C95.419 15.3291 95.9134 15.6499 96.4024 16.9834C96.4641 17.3043 96.5258 17.6253 96.5894 17.956C94.8531 16.2666 94.8531 16.2666 94.1953 15.2626C94.1953 15.0651 94.1953 14.8676 94.1953 14.6641Z" fill="#5B689B"/>
<path d="M91.8012 21.2478C92.9603 21.5903 93.8969 21.9161 94.7939 22.7441C94.7939 22.9416 94.7939 23.1392 94.7939 23.3427C93.4448 22.9662 92.552 22.4736 91.502 21.5471C91.6007 21.4483 91.6995 21.3496 91.8012 21.2478Z" fill="#505683"/>
<path d="M108.859 33.2185C110.281 33.443 110.281 33.443 110.954 34.1163C109.039 34.4846 109.039 34.4846 108.13 34.135C107.975 34.0301 107.821 33.9251 107.662 33.817C108.057 33.817 108.452 33.817 108.859 33.817C108.859 33.6195 108.859 33.422 108.859 33.2185Z" fill="#B2B6D4"/>
<path d="M80.7285 34.7148C81.0248 34.863 81.0248 34.863 81.327 35.0141C81.327 35.2116 81.327 35.4091 81.327 35.6126C81.7221 35.6126 82.1171 35.6126 82.5241 35.6126C82.5241 36.1064 82.5241 36.6002 82.5241 37.109C81.4007 36.7345 81.255 36.3413 80.7285 35.3134C80.7285 35.1159 80.7285 34.9183 80.7285 34.7148Z" fill="#9AA3DA"/>
<path d="M82.8242 33.5178C83.9665 33.9832 84.6773 34.7256 85.5176 35.6127C84.4209 35.4645 83.8093 35.3072 83.1235 34.4156C83.0247 34.1193 82.926 33.8231 82.8242 33.5178Z" fill="#535E90"/>
<path d="M105.27 31.7222C106.279 31.8859 106.791 32.0379 107.664 32.62C107.664 32.8175 107.664 33.015 107.664 33.2185C106.568 33.0704 105.967 32.9022 105.27 32.0214C105.27 31.9227 105.27 31.8239 105.27 31.7222Z" fill="#7A7E9E"/>
<path d="M82.8227 35.6125C83.4152 35.9088 84.0078 36.2051 84.6183 36.5103C83.826 36.9475 83.4528 37.1089 82.5234 37.1089C82.6222 36.6151 82.721 36.1213 82.8227 35.6125Z" fill="#343452"/>
<path d="M90.0059 32.0212C90.6972 32.0212 91.3885 32.0212 92.1007 32.0212C92.1007 32.3175 92.1007 32.6138 92.1007 32.919C91.6069 33.0178 91.1131 33.1166 90.6044 33.2183C90.6044 32.922 90.6044 32.6258 90.6044 32.3205C90.4069 32.2217 90.2094 32.123 90.0059 32.0212Z" fill="#282841"/>
<path d="M83.123 30.8245C83.5597 30.8586 83.9961 30.8968 84.4323 30.9367C84.7969 30.9679 84.7969 30.9679 85.1688 30.9998C85.8164 31.1237 85.8164 31.1237 86.415 31.7223C84.1919 31.8078 84.1919 31.8078 83.123 31.1237C83.123 31.025 83.123 30.9262 83.123 30.8245Z" fill="#2A2B46"/>
<path d="M101.977 29.6272C102.569 29.8247 103.162 30.0222 103.772 30.2257C103.772 30.6208 103.772 31.0158 103.772 31.4228C103.043 31.1983 103.043 31.1983 102.276 30.8243C102.033 30.1883 102.033 30.1883 101.977 29.6272Z" fill="#979BB5"/>
<path d="M99.8826 26.0359C101.342 26.5596 101.342 26.5596 101.678 27.2329C99.6956 27.607 99.6956 27.607 98.6855 26.9337C98.9818 26.8349 99.2781 26.7362 99.5833 26.6344C99.6821 26.4369 99.7809 26.2394 99.8826 26.0359Z" fill="#3D4165"/>
<path d="M94.1953 21.8464C95.3313 22.0087 95.8329 22.5052 96.5894 23.3428C95.9969 23.3428 95.4043 23.3428 94.7938 23.3428C94.5963 22.849 94.3988 22.3552 94.1953 21.8464Z" fill="#7383B9"/>
<path d="M75.3418 3.29199C75.9116 4.14665 76.1482 4.76772 76.4266 5.74223C76.5435 6.14671 76.5435 6.14671 76.6628 6.55936C76.7206 6.76498 76.7785 6.97059 76.8381 7.18244C76.101 6.63554 75.6907 6.21589 75.4949 5.30619C75.424 4.63426 75.3706 3.96697 75.3418 3.29199Z" fill="#A8AFDD"/>
<path d="M85.5176 16.1604C86.2089 16.7529 86.9002 17.3455 87.6124 17.956C87.5137 18.2523 87.4149 18.5485 87.3132 18.8538C87.0121 18.5187 86.7133 18.1817 86.4154 17.8438C86.2487 17.6563 86.0821 17.4688 85.9104 17.2756C85.5176 16.7589 85.5176 16.7589 85.5176 16.1604Z" fill="#9CA8E3"/>
<path d="M75.3418 2.39404C76.1626 3.35166 76.7275 4.19113 77.1374 5.3867C76.2796 5.07217 75.9912 4.88733 75.5662 4.05871C75.3418 3.29184 75.3418 3.29184 75.3418 2.39404Z" fill="#1C1C30"/>
<path d="M100.537 42.9072C100.815 42.9689 101.093 43.0306 101.379 43.0942C101.379 43.2917 101.379 43.4893 101.379 43.6928C100.49 43.594 99.6013 43.4952 98.6855 43.3935C99.5833 42.795 99.5833 42.795 100.537 42.9072Z" fill="#1C1B31"/>
<path d="M84.6191 37.4082C86.2766 37.5924 86.2766 37.5924 86.9759 38.1751C87.1425 38.388 87.1425 38.388 87.3125 38.6053C86.4075 38.4293 85.5117 38.2381 84.6191 38.0067C84.6191 37.8092 84.6191 37.6117 84.6191 37.4082Z" fill="#7A80BC"/>
<path d="M90.6035 19.7515C91.0973 20.0477 91.5911 20.344 92.0998 20.6493C92.0011 20.9455 91.9023 21.2418 91.8006 21.5471C91.5043 21.4483 91.208 21.3495 90.9028 21.2478C90.804 20.754 90.7053 20.2602 90.6035 19.7515Z" fill="#636DA3"/>
<path d="M88.2114 18.8538C89.6703 19.3775 89.6703 19.3775 90.007 20.0508C89.4645 20.2566 89.4645 20.2566 88.8099 20.3501C88.2862 19.9199 88.2862 19.9199 87.9121 19.4523C88.0109 19.2548 88.1096 19.0573 88.2114 18.8538Z" fill="#596092"/>
<path d="M83.7227 13.7661C84.4633 14.0624 84.4633 14.0624 85.219 14.3646C85.219 14.5622 85.219 14.7597 85.219 14.9632C85.4165 14.9632 85.614 14.9632 85.8175 14.9632C85.7188 15.2594 85.62 15.5557 85.5182 15.861C84.0818 15.1243 84.0818 15.1243 83.7788 14.3085C83.7603 14.1295 83.7417 13.9505 83.7227 13.7661Z" fill="#5D679C"/>
<path d="M107.662 32.6199C108.057 32.8174 108.452 33.0149 108.859 33.2184C108.859 33.4159 108.859 33.6134 108.859 33.8169C107.018 33.6416 107.018 33.6416 106.465 33.5177C106.367 33.3202 106.268 33.1226 106.166 32.9191C106.907 33.0673 106.907 33.0673 107.662 33.2184C107.662 33.0209 107.662 32.8234 107.662 32.6199Z" fill="#9DA0B7"/>
<path d="M79.8864 29.9078C80.0654 30.0128 80.2444 30.1177 80.4288 30.2258C80.3301 30.5221 80.2313 30.8184 80.1296 31.1236C79.391 30.7789 78.9182 30.5108 78.334 29.9266C79.2318 29.6273 79.2318 29.6273 79.8864 29.9078Z" fill="#22243B"/>
<path d="M83.7227 13.4668C84.8262 13.6159 85.4 13.7962 86.1168 14.6639C85.8205 14.7626 85.5242 14.8614 85.219 14.9631C85.219 14.7656 85.219 14.5681 85.219 14.3646C85.0276 14.3276 84.8363 14.2905 84.6392 14.2524C84.4355 14.1906 84.2318 14.1289 84.0219 14.0653C83.9232 13.8678 83.8244 13.6703 83.7227 13.4668Z" fill="#6C7AB2"/>
<path d="M21.1191 18.416H3.4873V24.752H17.6631V28.208H3.4873V34.5439H21.1191V38H0V14.96H21.1191V18.416ZM43.0918 22.8965H28.5312C28.318 22.8966 28.1257 22.9818 27.9551 23.1523C27.806 23.3016 27.7314 23.4832 27.7314 23.6963V33.7441C27.7315 33.9574 27.8058 34.1497 27.9551 34.3203C28.1257 34.4696 28.318 34.5439 28.5312 34.5439H43.1553V38H28.4355C27.6676 38 26.9741 37.8078 26.3555 37.4238C25.7369 37.0398 25.2355 36.5385 24.8516 35.9199C24.4676 35.3013 24.2754 34.6078 24.2754 33.8398V23.5996C24.2755 22.8318 24.4676 22.1381 24.8516 21.5195C25.2355 20.901 25.7369 20.3996 26.3555 20.0156C26.9741 19.6317 27.6676 19.4404 28.4355 19.4404H43.0918V22.8965ZM49.4521 19.4404H60.7168C61.4633 19.4405 62.1461 19.6317 62.7646 20.0156C63.4046 20.3996 63.9168 20.901 64.3008 21.5195C64.6847 22.1381 64.8769 22.8318 64.877 23.5996V38H61.4209V23.6963C61.4209 23.4831 61.3354 23.3016 61.165 23.1523C61.0157 22.9817 60.8335 22.8965 60.6201 22.8965H50.2529C50.0396 22.8965 49.8474 22.9817 49.6768 23.1523C49.5275 23.3017 49.4521 23.483 49.4521 23.6963V38H45.9961V13.3604H49.4521V19.4404ZM81.9951 19.4404C82.141 19.4404 82.2843 19.449 82.4248 19.4629C82.4896 19.5429 82.5531 19.6241 82.6182 19.7041L82.6211 19.708C82.6958 19.7993 82.7693 19.8897 82.8408 19.9766C82.9127 20.0639 82.9827 20.148 83.0518 20.2324C83.5786 20.8952 84.0986 21.4769 84.7178 22.0811L85.2998 22.6494H85.8223C85.9049 22.7977 86.003 22.9519 86.123 23.0967C86.1431 23.2616 86.1553 23.4291 86.1553 23.5996V28.9277L85.251 28.627C84.3654 28.2864 83.5047 28.0742 82.668 27.9316V23.6963C82.668 23.483 82.5926 23.3017 82.4434 23.1523C82.294 22.9817 82.1127 22.8965 81.8994 22.8965H71.5312C71.318 22.8966 71.1257 22.9818 70.9551 23.1523C70.806 23.3016 70.7314 23.4832 70.7314 23.6963V33.7441C70.7315 33.9574 70.8058 34.1497 70.9551 34.3203C71.1257 34.4696 71.318 34.5439 71.5312 34.5439H77.918C77.9503 34.5889 77.9825 34.6338 78.0146 34.6787L78.0225 34.6904L78.0303 34.7012C78.1322 34.8393 78.2335 34.9756 78.333 35.1104L78.7275 35.6455V35.7959L78.9473 36.2256C79.1435 36.6087 79.4491 37.2687 79.9053 37.7832C79.9733 37.8599 80.0438 37.9315 80.1152 38H71.4355C70.6676 38 69.9741 37.8078 69.3555 37.4238C68.7369 37.0398 68.2355 36.5385 67.8516 35.9199C67.4676 35.3013 67.2754 34.6078 67.2754 33.8398V23.5996C67.2755 22.8318 67.4676 22.1381 67.8516 21.5195C68.2355 20.901 68.7369 20.3996 69.3555 20.0156C69.9741 19.6317 70.6676 19.4404 71.4355 19.4404H81.9951ZM111.717 36.9941H111.72C111.736 36.9946 111.752 36.9947 111.768 36.9951C111.821 37.0255 111.874 37.0568 111.928 37.0869V37.0859C112.484 37.4036 113.048 37.7081 113.649 38H112.187C111.44 38 110.746 37.8187 110.106 37.4561C109.991 37.3865 109.88 37.3116 109.772 37.2344C110.049 37.2528 110.346 37.2448 110.662 37.1953L110.885 37.1611L111.094 37.0781C111.215 37.0297 111.285 37.0028 111.331 36.9854C111.41 36.9854 111.519 36.9883 111.717 36.9941ZM137.921 19.4404H149.186C149.932 19.4405 150.615 19.6317 151.233 20.0156C151.873 20.3996 152.386 20.901 152.77 21.5195C153.153 22.1381 153.346 22.8318 153.346 23.5996V38H149.89V23.6963C149.89 23.4831 149.804 23.3016 149.634 23.1523C149.484 22.9817 149.302 22.8965 149.089 22.8965H138.722C138.508 22.8965 138.316 22.9817 138.146 23.1523C137.996 23.3017 137.921 23.483 137.921 23.6963V38H134.465V13.3604H137.921V19.4404ZM170.59 19.4404C171.358 19.4404 172.051 19.6317 172.67 20.0156C173.31 20.3782 173.811 20.8797 174.174 21.5195C174.558 22.1594 174.75 22.8531 174.75 23.5996V38H160.03C159.262 38 158.558 37.8078 157.918 37.4238C157.299 37.0398 156.798 36.5385 156.414 35.9199C156.051 35.3013 155.87 34.6078 155.87 33.8398V26.9922H171.262V23.6963C171.262 23.483 171.187 23.3016 171.038 23.1523C170.889 22.9817 170.707 22.8965 170.494 22.8965H155.87V19.4404H170.59ZM192.211 22.8965H181.938C181.725 22.8965 181.533 22.9817 181.362 23.1523C181.213 23.3016 181.139 23.4831 181.139 23.6963V38H177.683V23.5996C177.683 22.8318 177.875 22.1381 178.259 21.5195C178.643 20.9011 179.144 20.3995 179.763 20.0156C180.403 19.6317 181.096 19.4404 181.843 19.4404H192.211V22.8965ZM212.541 38H197.821C197.053 38 196.349 37.8187 195.709 37.4561C195.09 37.0721 194.589 36.5599 194.205 35.9199C193.842 35.2799 193.661 34.5865 193.661 33.8398V23.5996C193.661 22.8318 193.842 22.1381 194.205 21.5195C194.589 20.9011 195.09 20.3995 195.709 20.0156C196.349 19.6317 197.053 19.4404 197.821 19.4404H209.085V13.3604H212.541V38ZM230.524 19.4404C231.292 19.4404 231.986 19.6317 232.604 20.0156C233.244 20.3995 233.746 20.9011 234.108 21.5195C234.492 22.1381 234.685 22.8318 234.685 23.5996V24.0801H231.196V23.6963C231.196 23.4831 231.122 23.3016 230.973 23.1523C230.823 22.9817 230.642 22.8965 230.429 22.8965H220.061C219.847 22.8965 219.655 22.9817 219.484 23.1523C219.335 23.3016 219.261 23.4831 219.261 23.6963V26.1924C219.261 26.4054 219.335 26.5971 219.484 26.7676C219.655 26.9169 219.847 26.9922 220.061 26.9922H230.524C231.292 26.9922 231.986 27.1844 232.604 27.5684C233.244 27.931 233.746 28.4323 234.108 29.0723C234.492 29.6909 234.685 30.3844 234.685 31.1523V33.8398C234.685 34.6078 234.492 35.3013 234.108 35.9199C233.746 36.5386 233.244 37.0398 232.604 37.4238C231.986 37.8078 231.292 38 230.524 38H219.965C219.197 38 218.503 37.8078 217.885 37.4238C217.266 37.0398 216.765 36.5386 216.381 35.9199C215.997 35.3013 215.805 34.6078 215.805 33.8398V33.3604H219.261V33.7441C219.261 33.9574 219.335 34.1497 219.484 34.3203C219.655 34.4696 219.847 34.5439 220.061 34.5439H230.429C230.642 34.5439 230.823 34.4695 230.973 34.3203C231.122 34.1497 231.196 33.9574 231.196 33.7441V31.248C231.196 31.0348 231.122 30.8534 230.973 30.7041C230.823 30.5335 230.642 30.4483 230.429 30.4482H219.965C219.197 30.4482 218.503 30.2669 217.885 29.9043C217.266 29.5204 216.765 29.0189 216.381 28.4004C215.997 27.7604 215.805 27.0561 215.805 26.2881V23.5996C215.805 22.8318 215.997 22.1381 216.381 21.5195C216.765 20.9011 217.266 20.3995 217.885 20.0156C218.503 19.6318 219.197 19.4404 219.965 19.4404H230.524ZM126.906 14.96C127.653 14.96 128.346 15.1521 128.986 15.5361C129.626 15.8988 130.128 16.4001 130.49 17.04C130.874 17.6587 131.066 18.3521 131.066 19.1201V20.4639H127.578V19.2158C127.578 19.0026 127.504 18.8212 127.354 18.6719C127.205 18.5013 127.024 18.4161 126.811 18.416H112.282C112.069 18.416 111.877 18.5012 111.706 18.6719C111.557 18.8212 111.482 19.0026 111.482 19.2158V23.9521C111.482 24.1867 111.557 24.379 111.706 24.5283C111.877 24.6776 112.069 24.7519 112.282 24.752H126.906C127.653 24.752 128.346 24.9441 128.986 25.3281C129.626 25.6908 130.128 26.1921 130.49 26.832C130.874 27.4507 131.066 28.1441 131.066 28.9121V33.8398C131.066 34.6078 130.874 35.3121 130.49 35.9521C130.128 36.5708 129.626 37.0721 128.986 37.4561C128.346 37.8187 127.653 38 126.906 38H118.391L117.76 36.8389L118.219 36.6104L116.722 34.6846C116.685 34.6377 116.649 34.5908 116.612 34.5439H126.811C127.024 34.5439 127.205 34.4695 127.354 34.3203C127.504 34.1497 127.578 33.9574 127.578 33.7441V29.0078C127.578 28.7732 127.504 28.5809 127.354 28.4316C127.205 28.2824 127.024 28.2081 126.811 28.208H112.187C112.001 28.208 111.818 28.1963 111.639 28.1738C111.237 27.6684 110.833 27.1659 110.423 26.6689C110.168 26.3407 109.923 26.0273 109.674 25.7051C109.137 25.0111 108.59 24.2961 108.026 23.5801V19.1201C108.026 18.3521 108.208 17.6587 108.57 17.04C108.954 16.4 109.466 15.8988 110.106 15.5361C110.746 15.1522 111.44 14.96 112.187 14.96H126.906ZM159.326 33.7441C159.326 33.9574 159.401 34.1497 159.55 34.3203C159.72 34.4696 159.913 34.5439 160.126 34.5439H171.262V30.2236H159.326V33.7441ZM197.949 22.8965C197.736 22.8965 197.544 22.9817 197.373 23.1523C197.224 23.3017 197.148 23.483 197.148 23.6963V33.7441C197.148 33.9574 197.224 34.1497 197.373 34.3203C197.544 34.4695 197.736 34.5439 197.949 34.5439H208.316C208.53 34.5439 208.711 34.4694 208.86 34.3203C209.01 34.1497 209.085 33.9574 209.085 33.7441V23.6963C209.085 23.483 209.01 23.3017 208.86 23.1523C208.711 22.9817 208.53 22.8965 208.316 22.8965H197.949Z" fill="white"/>
</svg>
